<?xml version="1.0" standalone="no"?>
<!DOCTYPE svg PUBLIC "-//W3C//DTD SVG 20010904//EN"
 "http://www.w3.org/TR/2001/REC-SVG-20010904/DTD/svg10.dtd">
<svg version="1.0" xmlns="http://www.w3.org/2000/svg"
 width="211.000000pt" height="211.000000pt" viewBox="0 0 211.000000 211.000000"
 preserveAspectRatio="xMidYMid meet">
<metadata>
Created by potrace 1.11, written by Peter Selinger 2001-2013
</metadata>
<g transform="translate(0.000000,211.000000) scale(0.100000,-0.100000)"
fill="#000000" stroke="none">
<path d="M693 2045 c-143 -39 -286 -160 -346 -295 -38 -85 -47 -140 -47 -297
0 -127 -2 -153 -14 -153 -25 0 -30 -19 -52 -196 -21 -166 -22 -171 -57 -217
-74 -98 -61 -179 58 -362 31 -49 45 -81 45 -106 0 -73 29 -126 115 -218 47
-49 107 -100 137 -116 46 -26 63 -30 133 -30 70 0 87 4 133 30 30 16 65 42 78
58 22 27 26 28 42 14 57 -50 154 -62 222 -27 21 11 42 25 45 31 5 7 21 -2 44
-24 80 -78 191 -105 292 -72 44 15 72 36 153 114 108 106 146 167 146 239 0
34 9 56 39 101 124 182 140 287 58 373 -30 32 -31 39 -53 211 -13 98 -26 182
-29 187 -3 6 -13 10 -21 10 -12 0 -14 26 -14 153 0 232 -32 320 -159 448 -80
79 -146 119 -242 144 -76 21 -630 20 -706 0z m676 -50 c140 -33 265 -132 326
-260 19 -38 37 -84 40 -101 l6 -32 -683 -4 c-376 -2 -687 0 -693 4 -14 12 30
132 72 196 63 94 173 170 286 198 80 19 563 18 646 -1z m379 -669 c2 -68 5
-79 22 -83 11 -3 20 -6 20 -7 13 -87 30 -228 30 -248 0 -24 -4 -28 -30 -28
-19 0 -33 -7 -39 -19 -13 -24 1 -36 51 -45 47 -9 93 -52 107 -100 13 -50 -8
-107 -86 -229 -36 -58 -56 -100 -55 -116 1 -14 -5 -49 -13 -78 -13 -43 -30
-68 -98 -137 -99 -100 -144 -126 -224 -126 -71 0 -127 25 -170 73 -28 32 -31
41 -23 63 15 39 12 85 -10 155 -36 118 -110 199 -182 199 -101 0 -210 -186
-194 -330 6 -52 4 -60 -19 -88 -55 -66 -177 -92 -261 -57 -46 19 -190 158
-216 209 -11 21 -22 64 -25 94 -5 44 -16 72 -50 124 -72 111 -105 188 -97 228
11 66 55 108 124 120 62 10 50 60 -14 60 -26 0 -28 2 -23 33 4 17 12 79 18
135 11 94 14 105 36 113 21 8 23 14 23 89 l0 80 698 -2 697 -3 3 -79z"/>
<path d="M483 1293 c-9 -3 -13 -34 -13 -106 0 -116 15 -153 71 -183 114 -58
360 72 399 212 23 80 25 79 -226 81 -120 1 -225 -1 -231 -4z"/>
<path d="M1163 1293 c-7 -2 -13 -19 -13 -36 1 -121 165 -255 326 -265 71 -4
72 -4 110 31 l39 35 0 119 0 118 -225 2 c-124 1 -231 -1 -237 -4z"/>
<path d="M930 867 c-31 -13 -98 -47 -149 -76 -51 -30 -112 -59 -135 -66 -29
-9 -41 -18 -41 -31 0 -37 55 -29 151 22 227 121 223 119 294 119 71 0 58 5
284 -114 106 -56 161 -65 161 -27 0 13 -12 22 -43 31 -23 7 -88 39 -144 71
-56 32 -125 66 -153 76 -71 25 -158 23 -225 -5z"/>
<path d="M533 531 c-97 -61 -75 -210 35 -241 49 -13 89 -2 127 36 57 57 54
136 -8 193 -37 33 -111 39 -154 12z"/>
<path d="M1444 540 c-30 -12 -71 -64 -79 -100 -14 -64 37 -138 107 -155 70
-18 158 53 158 128 0 98 -96 164 -186 127z"/>
</g>
</svg>
